<svg width="36" height="48" viewBox="0 0 36 48" fill="none" xmlns="http://www.w3.org/2000/svg">
<path d="M10 32H20L13 48H12L10.5 42L3.5 46H2L10 32Z" fill="#299A85"/>
<path d="M9 32H19L12 48L9 42L2 46L9 32Z" fill="#4BC3AD"/>
<path d="M28 32H18L24 48H25L28 42L34 46H35L28 32Z" fill="#299A85"/>
<path d="M27 32H17L24 48L27 42L34 46L27 32Z" fill="#4BC3AD"/>
<path d="M36 18C36 27.9413 27.9413 36 18 36C8.05875 36 0 27.9413 0 18C0 8.05875 8.05875 0 18 0C27.9413 0 36 8.05875 36 18Z" fill="#F49700"/>
<path d="M16.5707 0.0562134C7.29794 0.784882 0 8.53986 0 17.9999C0 27.46 7.29794 35.2149 16.5707 35.9436C25.8434 35.2149 33.1414 27.46 33.1414 17.9999C33.1414 8.53986 25.8434 0.784882 16.5707 0.0562134Z" fill="#FFBF28"/>
<path d="M28.5341 18.0002C28.5341 10.747 23.145 4.86713 16.4975 4.86713C9.84964 4.86713 4.46057 10.747 4.46057 18.0002C4.46057 25.2534 9.84964 31.1332 16.4975 31.1332C23.145 31.1332 28.5341 25.2534 28.5341 18.0002Z" fill="#F49700"/>
<path d="M19.8022 5.36914C18.3036 4.90332 16.7029 4.90332 15.2044 5.36914C10.1636 6.93607 6.47217 11.9975 6.47217 18.0001C6.47217 24.1201 10.3094 29.2619 15.5018 30.719C16.8095 31.0859 18.197 31.0859 19.5047 30.719C24.6971 29.2619 28.5341 24.1203 28.5341 18.0001C28.5341 11.9975 24.843 6.93607 19.8022 5.36914Z" fill="#FFCF5F"/>
<g filter="url(#filter0_d_218_19)">
<path d="M16.62 23.628V12.452H16.224L14.772 17.732H12V17.468L13.848 11H19.524V23.628H23.352V26.4H12.264V23.628H16.62Z" fill="#FFEAB9"/>
</g>
<defs>
<filter id="filter0_d_218_19" x="12" y="11" width="12.3521" height="15.4" filterUnits="userSpaceOnUse" color-interpolation-filters="sRGB">
<feFlood flood-opacity="0" result="BackgroundImageFix"/>
<feColorMatrix in="SourceAlpha" type="matrix" values="0 0 0 0 0 0 0 0 0 0 0 0 0 0 0 0 0 0 127 0" result="hardAlpha"/>
<feOffset dx="1"/>
<feComposite in2="hardAlpha" operator="out"/>
<feColorMatrix type="matrix" values="0 0 0 0 0.956863 0 0 0 0 0.592157 0 0 0 0 0 0 0 0 1 0"/>
<feBlend mode="normal" in2="BackgroundImageFix" result="effect1_dropShadow_218_19"/>
<feBlend mode="normal" in="SourceGraphic" in2="effect1_dropShadow_218_19" result="shape"/>
</filter>
</defs>
</svg>
