<svg width="36" height="48" viewBox="0 0 36 48" fill="none" xmlns="http://www.w3.org/2000/svg">
<path d="M10 32H20L13 48H12L10.5 42L3.5 46H2L10 32Z" fill="#299A85"/>
<path d="M9 32H19L12 48L9 42L2 46L9 32Z" fill="#4BC3AD"/>
<path d="M28 32H18L24 48H25L28 42L34 46H35L28 32Z" fill="#299A85"/>
<path d="M27 32H17L24 48L27 42L34 46L27 32Z" fill="#4BC3AD"/>
<path d="M36 18C36 27.9413 27.9413 36 18 36C8.05875 36 0 27.9413 0 18C0 8.05875 8.05875 0 18 0C27.9413 0 36 8.05875 36 18Z" fill="#A7A4A4"/>
<path d="M16.5707 0.0562134C7.29794 0.784882 0 8.53986 0 17.9999C0 27.46 7.29794 35.2149 16.5707 35.9436C25.8434 35.2149 33.1414 27.46 33.1414 17.9999C33.1414 8.53986 25.8434 0.784882 16.5707 0.0562134Z" fill="#DDDDDD"/>
<path d="M28.5341 18.0002C28.5341 10.747 23.145 4.86713 16.4975 4.86713C9.84964 4.86713 4.46057 10.747 4.46057 18.0002C4.46057 25.2534 9.84964 31.1332 16.4975 31.1332C23.145 31.1332 28.5341 25.2534 28.5341 18.0002Z" fill="#A7A4A4"/>
<path d="M19.8022 5.36914C18.3036 4.90332 16.7029 4.90332 15.2044 5.36914C10.1636 6.93607 6.47217 11.9975 6.47217 18.0001C6.47217 24.1201 10.3094 29.2619 15.5018 30.719C16.8095 31.0859 18.197 31.0859 19.5047 30.719C24.6971 29.2619 28.5341 24.1203 28.5341 18.0001C28.5341 11.9975 24.843 6.93607 19.8022 5.36914Z" fill="#E3E2E2"/>
<g filter="url(#filter0_d_218_148)">
<path d="M23.0185 23.228V26H12.1945V22.964C12.1945 22.1573 12.3118 21.468 12.5465 20.896C12.7958 20.324 13.1405 19.84 13.5805 19.444C14.0352 19.048 14.5778 18.7253 15.2085 18.476C15.8392 18.212 16.5505 17.992 17.3425 17.816C17.9292 17.684 18.4058 17.5373 18.7725 17.376C19.1538 17.2 19.4545 17.0093 19.6745 16.804C19.8945 16.584 20.0412 16.3493 20.1145 16.1C20.2025 15.836 20.2465 15.5427 20.2465 15.22C20.2465 14.604 20.0192 14.0907 19.5645 13.68C19.1245 13.2693 18.5085 13.064 17.7165 13.064C16.8805 13.064 16.2132 13.3207 15.7145 13.834C15.2158 14.3327 14.9665 15.0293 14.9665 15.924V16.892H12.0625V15.66C12.0625 14.9413 12.1872 14.2593 12.4365 13.614C12.7005 12.954 13.0672 12.382 13.5365 11.898C14.0205 11.3993 14.6072 11.0107 15.2965 10.732C15.9858 10.4387 16.7632 10.292 17.6285 10.292C18.5525 10.292 19.3592 10.4313 20.0485 10.71C20.7378 10.974 21.3098 11.326 21.7645 11.766C22.2338 12.206 22.5785 12.7193 22.7985 13.306C23.0332 13.878 23.1505 14.472 23.1505 15.088V15.352C23.1505 16.6427 22.7838 17.7133 22.0505 18.564C21.3318 19.4147 20.1512 20.0307 18.5085 20.412C17.8192 20.5733 17.2472 20.742 16.7925 20.918C16.3525 21.0793 16.0078 21.2627 15.7585 21.468C15.5092 21.6733 15.3332 21.9007 15.2305 22.15C15.1425 22.3847 15.0985 22.656 15.0985 22.964V23.228H23.0185Z" fill="#FDF9F1"/>
</g>
<defs>
<filter id="filter0_d_218_148" x="12.0625" y="10.292" width="12.088" height="15.708" filterUnits="userSpaceOnUse" color-interpolation-filters="sRGB">
<feFlood flood-opacity="0" result="BackgroundImageFix"/>
<feColorMatrix in="SourceAlpha" type="matrix" values="0 0 0 0 0 0 0 0 0 0 0 0 0 0 0 0 0 0 127 0" result="hardAlpha"/>
<feOffset dx="1"/>
<feComposite in2="hardAlpha" operator="out"/>
<feColorMatrix type="matrix" values="0 0 0 0 0.654902 0 0 0 0 0.643137 0 0 0 0 0.643137 0 0 0 1 0"/>
<feBlend mode="normal" in2="BackgroundImageFix" result="effect1_dropShadow_218_148"/>
<feBlend mode="normal" in="SourceGraphic" in2="effect1_dropShadow_218_148" result="shape"/>
</filter>
</defs>
</svg>
