<svg width="36" height="48" viewBox="0 0 36 48" fill="none" xmlns="http://www.w3.org/2000/svg">
<path d="M10 32H20L13 48H12L10.5 42L3.5 46H2L10 32Z" fill="#299A85"/>
<path d="M9 32H19L12 48L9 42L2 46L9 32Z" fill="#4BC3AD"/>
<path d="M28 32H18L24 48H25L28 42L34 46H35L28 32Z" fill="#299A85"/>
<path d="M27 32H17L24 48L27 42L34 46L27 32Z" fill="#4BC3AD"/>
<path d="M36 18C36 27.9413 27.9413 36 18 36C8.05875 36 0 27.9413 0 18C0 8.05875 8.05875 0 18 0C27.9413 0 36 8.05875 36 18Z" fill="#823306"/>
<path d="M16.5707 0.0562134C7.29794 0.784882 0 8.53986 0 17.9999C0 27.46 7.29794 35.2149 16.5707 35.9436C25.8434 35.2149 33.1414 27.46 33.1414 17.9999C33.1414 8.53986 25.8434 0.784882 16.5707 0.0562134Z" fill="#AF5D2F"/>
<path d="M28.5341 18.0002C28.5341 10.747 23.145 4.86713 16.4975 4.86713C9.84964 4.86713 4.46057 10.747 4.46057 18.0002C4.46057 25.2534 9.84964 31.1332 16.4975 31.1332C23.145 31.1332 28.5341 25.2534 28.5341 18.0002Z" fill="#823306"/>
<path d="M19.8022 5.36914C18.3036 4.90332 16.7029 4.90332 15.2044 5.36914C10.1636 6.93607 6.47217 11.9975 6.47217 18.0001C6.47217 24.1201 10.3094 29.2619 15.5018 30.719C16.8095 31.0859 18.197 31.0859 19.5047 30.719C24.6971 29.2619 28.5341 24.1203 28.5341 18.0001C28.5341 11.9975 24.843 6.93607 19.8022 5.36914Z" fill="#CF855B"/>
<g filter="url(#filter0_d_218_276)">
<path d="M16.0005 19.4001V14.8241L19.8285 13.7681V13.3721H12.1725V10.6001H22.2045V15.4401L18.1125 16.6281V17.0241H18.6405C19.1832 17.0241 19.7185 17.1121 20.2465 17.2881C20.7745 17.4494 21.2365 17.7061 21.6325 18.0581C22.0432 18.4101 22.3732 18.8501 22.6225 19.3781C22.8719 19.8914 22.9965 20.5001 22.9965 21.2041V21.4681C22.9965 22.1574 22.8792 22.7954 22.6445 23.3821C22.4245 23.9688 22.0872 24.4821 21.6325 24.9221C21.1925 25.3474 20.6425 25.6848 19.9825 25.9341C19.3225 26.1834 18.5672 26.3081 17.7165 26.3081C16.8512 26.3081 16.0665 26.1688 15.3625 25.8901C14.6585 25.6114 14.0572 25.2301 13.5585 24.7461C13.0745 24.2621 12.7005 23.7048 12.4365 23.0741C12.1725 22.4434 12.0405 21.7761 12.0405 21.0721V20.1481H14.9445V20.9401C14.9445 21.6441 15.1719 22.2528 15.6265 22.7661C16.0812 23.2794 16.7632 23.5361 17.6725 23.5361C18.4499 23.5361 19.0439 23.3381 19.4545 22.9421C19.8799 22.5461 20.0925 22.0254 20.0925 21.3801C20.0925 20.6908 19.8652 20.1921 19.4105 19.8841C18.9705 19.5614 18.4059 19.4001 17.7165 19.4001H16.0005Z" fill="#EACBB9"/>
</g>
<defs>
<filter id="filter0_d_218_276" x="12.0405" y="10.6001" width="11.9561" height="15.708" filterUnits="userSpaceOnUse" color-interpolation-filters="sRGB">
<feFlood flood-opacity="0" result="BackgroundImageFix"/>
<feColorMatrix in="SourceAlpha" type="matrix" values="0 0 0 0 0 0 0 0 0 0 0 0 0 0 0 0 0 0 127 0" result="hardAlpha"/>
<feOffset dx="1"/>
<feComposite in2="hardAlpha" operator="out"/>
<feColorMatrix type="matrix" values="0 0 0 0 0.509804 0 0 0 0 0.2 0 0 0 0 0.0235294 0 0 0 1 0"/>
<feBlend mode="normal" in2="BackgroundImageFix" result="effect1_dropShadow_218_276"/>
<feBlend mode="normal" in="SourceGraphic" in2="effect1_dropShadow_218_276" result="shape"/>
</filter>
</defs>
</svg>
