<svg  preserveAspectRatio="none" viewBox="0 0 1097 623" fill="none" xmlns="http://www.w3.org/2000/svg">
<path d="M1097 46H1083.24L1083 45.7872V30H1067V17H47V31.3077V30H31V46H17V594H31V610H47V623H1067V610H1083V594H1097V46Z" fill="#F617BD"/>
<path d="M1080 29H1066.24L1066 28.7872V13H1050V0H30V14.3077V13H14V29H0V577H14V593H30V606H1050V593H1066V577H1080V29Z" fill="#03EFCB"/>
<path d="M1089 36H1075.24L1075 35.7872V20H1059V7H39V21.3077V20H23V36H9V584H23V600H39V613H1059V600H1075V584H1089V36Z" fill="#EBF9FE"/>
</svg>
