<svg width="38" height="41" viewBox="0 0 38 41" fill="none" xmlns="http://www.w3.org/2000/svg">
<rect x="14.6167" width="8.76872" height="35.1357" fill="white"/>
<rect x="8.77094" y="2.93042" width="5.84582" height="29.3042" fill="white"/>
<rect x="23.3855" y="2.93042" width="5.84582" height="29.3042" fill="white"/>
<rect x="5.8479" y="5.8902" width="2.92291" height="23.3554" fill="white"/>
<rect x="2.92505" y="8.82062" width="2.92291" height="14.6228" fill="white"/>
<rect x="32.1542" y="8.82062" width="2.92291" height="14.6228" fill="white"/>
<rect x="35.0771" y="14.652" width="2.92291" height="8.76196" fill="white"/>
<rect x="0.0022583" y="14.652" width="2.92291" height="8.76196" fill="white"/>
<rect y="23.4076" width="2.92211" height="2.92962" fill="#CDCDCD"/>
<rect x="2.92212" y="29.2521" width="2.92211" height="2.92962" fill="#CDCDCD"/>
<rect x="5.84424" y="32.1817" width="2.92211" height="2.92962" fill="#CDCDCD"/>
<rect x="29.2211" y="32.1817" width="2.92211" height="2.92962" fill="#CDCDCD"/>
<rect x="32.1579" y="29.2374" width="2.92211" height="2.92962" fill="#CDCDCD"/>
<rect x="35.0654" y="23.4076" width="2.92211" height="2.92962" fill="#CDCDCD"/>
<rect x="8.76636" y="35.1407" width="5.84422" height="2.92962" fill="#CDCDCD"/>
<rect x="23.3916" y="35.1407" width="5.84422" height="2.92962" fill="#CDCDCD"/>
<rect x="14.6106" y="38.0704" width="8.78102" height="2.92962" fill="#CDCDCD"/>
<rect x="29.2312" y="5.8902" width="2.92291" height="23.3554" fill="white"/>
<rect x="23.3855" y="38.0662" width="8.76872" height="2.93042" transform="rotate(-180 23.3855 38.0662)" fill="white"/>
<rect x="29.2313" y="35.1359" width="5.84582" height="2.93042" transform="rotate(-180 29.2313 35.1359)" fill="white"/>
<rect x="14.6167" y="35.1359" width="5.84582" height="2.93042" transform="rotate(-180 14.6167 35.1359)" fill="white"/>
<rect x="32.1542" y="32.176" width="2.92291" height="2.93042" transform="rotate(-180 32.1542 32.176)" fill="white"/>
<rect x="35.0771" y="29.2457" width="2.92291" height="5.83154" transform="rotate(-180 35.0771 29.2457)" fill="white"/>
<rect x="5.84802" y="29.2457" width="2.92291" height="5.83154" transform="rotate(-180 5.84802 29.2457)" fill="white"/>
<rect x="8.77094" y="32.176" width="2.92291" height="2.93042" transform="rotate(-180 8.77094 32.176)" fill="white"/>
<rect x="11.7384" y="9.37866" width="2.4249" height="2.43113" fill="#402D73"/>
<rect x="6.88867" y="19.069" width="2.4249" height="2.43113" fill="#5E489B"/>
<rect x="16.5883" y="19.069" width="2.4249" height="2.43113" fill="#EEA132"/>
<rect x="23.8516" y="19.069" width="2.4249" height="2.43113" fill="#37B39C"/>
<rect x="11.7384" y="19.069" width="2.4249" height="2.43113" fill="#DF5D30"/>
<rect x="19.0131" y="19.069" width="2.41357" height="2.43113" fill="#EEA132"/>
<rect x="28.7013" y="19.069" width="2.4249" height="2.43113" fill="#5E489B"/>
<rect x="9.31348" y="19.069" width="2.4249" height="2.43113" fill="#5E489B"/>
<rect x="26.2765" y="19.069" width="2.4249" height="2.43113" fill="#5E489B"/>
<rect x="14.1633" y="19.069" width="2.4249" height="2.43113" fill="#DF5D30"/>
<rect x="21.4268" y="19.069" width="2.4249" height="2.43113" fill="#37B39C"/>
<rect x="9.31348" y="16.6721" width="2.4249" height="2.43113" fill="#5E489B"/>
<rect x="9.31348" y="21.4775" width="2.4249" height="2.43113" fill="#5E489B"/>
<rect x="9.31348" y="23.8403" width="2.4249" height="2.43113" fill="#5E489B"/>
<rect x="6.88678" y="21.4791" width="2.4249" height="2.43113" fill="#402D73"/>
<rect x="14.1633" y="16.6721" width="2.4249" height="2.43113" fill="#DF5D30"/>
<rect x="14.1633" y="21.4775" width="2.4249" height="2.43113" fill="#DF5D30"/>
<rect x="14.1633" y="23.8403" width="2.4249" height="2.43113" fill="#DF5D30"/>
<rect x="14.1633" y="26.2715" width="2.4249" height="2.41977" fill="#DF5D30"/>
<rect x="14.1633" y="28.6913" width="2.4249" height="2.43113" fill="#BA4921"/>
<rect x="21.4268" y="16.6721" width="2.4249" height="2.43113" fill="#37B39C"/>
<rect x="21.4268" y="21.4775" width="2.4249" height="2.43113" fill="#37B39C"/>
<rect x="21.4268" y="23.8403" width="2.4249" height="2.43113" fill="#37B39C"/>
<rect x="21.4268" y="26.2715" width="2.4249" height="2.41977" fill="#37B39C"/>
<rect x="21.4268" y="28.6913" width="2.4249" height="2.43113" fill="#229580"/>
<rect x="11.7384" y="16.6721" width="2.4249" height="2.43113" fill="#DF5D30"/>
<rect x="11.7384" y="21.4775" width="2.4249" height="2.43113" fill="#DF5D30"/>
<rect x="11.7384" y="23.8403" width="2.4249" height="2.43113" fill="#DF5D30"/>
<rect x="11.7384" y="26.2715" width="2.4249" height="2.41977" fill="#BA4921"/>
<rect x="9.31348" y="26.2715" width="2.4249" height="2.41977" fill="#402D73"/>
<rect x="16.5883" y="16.6721" width="2.4249" height="2.43113" fill="#EEA132"/>
<rect x="16.5883" y="21.4775" width="2.4249" height="2.43113" fill="#EEA132"/>
<rect x="16.5883" y="23.8403" width="2.4249" height="2.43113" fill="#EEA132"/>
<rect x="16.5883" y="26.2715" width="2.4249" height="2.41977" fill="#EEA132"/>
<rect x="16.5883" y="28.6913" width="2.4249" height="2.43113" fill="#D28A22"/>
<rect x="19.0131" y="16.6721" width="2.41357" height="2.43113" fill="#EEA132"/>
<rect x="19.0131" y="21.4775" width="2.41357" height="2.43113" fill="#EEA132"/>
<rect x="19.0131" y="23.8403" width="2.41357" height="2.43113" fill="#EEA132"/>
<rect x="19.0131" y="26.2715" width="2.41357" height="2.41977" fill="#EEA132"/>
<rect x="19.0131" y="28.6913" width="2.41357" height="2.43113" fill="#D28A22"/>
<rect x="23.8516" y="16.6721" width="2.4249" height="2.43113" fill="#37B39C"/>
<rect x="23.8516" y="21.4775" width="2.4249" height="2.43113" fill="#37B39C"/>
<rect x="23.8516" y="23.8403" width="2.4249" height="2.43113" fill="#37B39C"/>
<rect x="23.8516" y="26.2715" width="2.4249" height="2.41977" fill="#229580"/>
<rect x="26.2765" y="26.2715" width="2.4249" height="2.41977" fill="#402D73"/>
<rect x="26.2765" y="16.6721" width="2.4249" height="2.43113" fill="#5E489B"/>
<rect x="26.2765" y="21.4775" width="2.4249" height="2.43113" fill="#5E489B"/>
<rect x="26.2765" y="23.8403" width="2.4249" height="2.43113" fill="#5E489B"/>
<rect x="28.7013" y="21.4775" width="2.4249" height="2.43113" fill="#402D73"/>
<rect x="6.88867" y="23.8346" width="2.4249" height="2.43113" fill="#E9E9E9"/>
<rect x="14.1633" y="31.0485" width="2.4249" height="2.43113" fill="#E9E9E9"/>
<rect x="21.4268" y="31.0485" width="2.4249" height="2.43113" fill="#E9E9E9"/>
<rect x="11.7384" y="28.6287" width="2.4249" height="2.41977" fill="#E9E9E9"/>
<rect x="9.31354" y="28.6287" width="2.4249" height="2.41977" fill="#E9E9E9"/>
<rect x="16.5883" y="31.0485" width="2.4249" height="2.43113" fill="#E9E9E9"/>
<rect x="19.0132" y="31.0485" width="2.41357" height="2.43113" fill="#E9E9E9"/>
<rect x="23.8516" y="28.6287" width="2.4249" height="2.41977" fill="#E9E9E9"/>
<rect x="26.2765" y="28.6287" width="2.4249" height="2.41977" fill="#E9E9E9"/>
<rect x="28.7014" y="23.8346" width="2.4249" height="2.43113" fill="#E9E9E9"/>
<rect x="23.8516" y="9.37866" width="2.4249" height="2.43113" fill="#402D73"/>
<rect x="23.8516" y="11.7921" width="2.4249" height="2.43113" fill="#E9E9E9"/>
<rect x="14.1633" y="9.37866" width="2.4249" height="2.43113" fill="#402D73"/>
<rect x="14.1633" y="11.7921" width="2.4249" height="2.43113" fill="#E9E9E9"/>
<rect x="26.2765" y="9.37866" width="2.4249" height="2.43113" fill="#402D73"/>
<rect x="26.2765" y="11.7921" width="2.4249" height="2.43113" fill="#E9E9E9"/>
<rect x="11.7383" y="6.94745" width="2.4249" height="2.43113" fill="#402D73"/>
<rect x="9.31348" y="9.37866" width="2.4249" height="2.43113" fill="#402D73"/>
<rect x="9.31348" y="11.7921" width="2.4249" height="2.43113" fill="#E9E9E9"/>
<rect x="21.4268" y="9.37866" width="2.4249" height="2.43113" fill="#402D73"/>
<rect x="21.4268" y="11.7921" width="2.4249" height="2.43113" fill="#E9E9E9"/>
<rect x="11.7384" y="11.8097" width="2.4249" height="2.43113" fill="#402D73"/>
<rect x="11.7384" y="14.2233" width="2.4249" height="2.43113" fill="#E9E9E9"/>
</svg>
